<svg width="49" height="38" viewBox="0 0 49 38" fill="none" xmlns="http://www.w3.org/2000/svg">
<path d="M47.7757 8.75928C47.2923 8.35516 46.7083 8.09524 46.0885 8.00839C45.4687 7.92155 44.8373 8.01116 44.2646 8.2673L33.6259 13.0801L27.4445 1.74322C27.1491 1.21393 26.721 0.773759 26.2039 0.467542C25.6869 0.161324 25.0993 0 24.501 0C23.9027 0 23.3151 0.161324 22.798 0.467542C22.281 0.773759 21.8529 1.21393 21.5575 1.74322L15.3761 13.0801L4.73744 8.2673C4.16452 8.00661 3.53134 7.91418 2.90949 8.00046C2.28763 8.08673 1.7019 8.34826 1.21851 8.7555C0.735112 9.16273 0.373331 9.69942 0.174064 10.3049C-0.0252041 10.9104 -0.0540124 11.5605 0.0908953 12.1818L5.43126 35.3476C5.53338 35.7961 5.72393 36.2188 5.99136 36.5902C6.2588 36.9615 6.59756 37.2738 6.98712 37.508C7.51452 37.8292 8.11753 37.9992 8.7322 38C9.031 37.9994 9.32824 37.9562 9.61525 37.8717C19.3495 35.1336 29.6315 35.1336 39.3657 37.8717C40.2545 38.1094 41.1997 37.9786 41.9939 37.508C42.3858 37.2768 42.7264 36.9654 42.9942 36.5936C43.262 36.2217 43.4511 35.7975 43.5497 35.3476L48.9111 12.1818C49.0544 11.5603 49.024 10.9105 48.8234 10.3057C48.6227 9.70094 48.2599 9.16529 47.7757 8.75928ZM40.2698 34.5775C29.9446 31.6684 19.0364 31.6684 8.71117 34.5775L3.37081 11.4117L14.0095 16.2032C14.7729 16.5562 15.6393 16.6025 16.4348 16.3327C17.2303 16.0629 17.8961 15.497 18.2986 14.7486L24.501 3.41167L30.7034 14.7486C31.1059 15.497 31.7717 16.0629 32.5672 16.3327C33.3627 16.6025 34.2291 16.5562 34.9925 16.2032L45.6312 11.4117L40.2698 34.5775Z" fill="#F8F8F8"/>
</svg>
